<svg xmlns="http://www.w3.org/2000/svg" viewBox="0 0 100 100" role="img" aria-label="Dao De Zion">
  <circle cx="50" cy="50" r="48" fill="#140d07" />
  <circle cx="50" cy="50" r="41" fill="none" stroke="#b3852f" stroke-width="1.6" />
  <circle cx="50" cy="50" r="37" fill="none" stroke="#b3852f" stroke-width="0.9" opacity="0.55" />
  <line x1="50" y1="78" x2="50" y2="28" stroke="#b3852f" stroke-width="1" opacity="0.6" />
  <path d="M30,78 L70,78 L63,66 L37,66 Z" fill="none" stroke="#a3311d" stroke-width="1.8" />
  <path d="M39,66 L61,66 L55,54 L45,54 Z" fill="none" stroke="#a3311d" stroke-width="1.8" />
  <path d="M46,54 L54,54 L50,44 Z" fill="none" stroke="#a3311d" stroke-width="1.8" />
  <path d="M47,78 L47,71 Q50,67 53,71 L53,78" fill="none" stroke="#a3311d" stroke-width="1.6" />
  <path d="M50,18 L52,28 L60,30 L52,32 L50,42 L48,32 L40,30 L48,28 Z" fill="none" stroke="#b3852f" stroke-width="1" />
  <circle cx="50" cy="30" r="2" fill="#b3852f" />
</svg>
