<svg width="1200" height="630" viewBox="0 0 1200 630" xmlns="http://www.w3.org/2000/svg">
  <defs>
    <radialGradient id="glow" cx="50%" cy="2%" r="70%">
      <stop offset="0%" stop-color="#b88a36" stop-opacity="0.22" />
      <stop offset="55%" stop-color="#7a2317" stop-opacity="0.10" />
      <stop offset="100%" stop-color="#0a0605" stop-opacity="0" />
    </radialGradient>
    <linearGradient id="ground" x1="0" y1="0" x2="0" y2="1">
      <stop offset="0%" stop-color="#0f0a08" />
      <stop offset="100%" stop-color="#090605" />
    </linearGradient>
  </defs>

  <rect width="1200" height="630" fill="url(#ground)" />
  <rect width="1200" height="630" fill="url(#glow)" />
  <rect x="28" y="28" width="1144" height="574" fill="none" stroke="#b3852f" stroke-opacity="0.55" stroke-width="1.5" />
  <rect x="36" y="36" width="1128" height="558" fill="none" stroke="#b3852f" stroke-opacity="0.25" stroke-width="0.8" />

  <!-- emblem (200x200) centered near top -->
  <g transform="translate(500,78)" fill="none">
    <circle cx="100" cy="100" r="92" stroke="#976f25" stroke-width="1.4" stroke-opacity="0.9" />
    <circle cx="100" cy="100" r="86" stroke="#976f25" stroke-width="0.9" stroke-opacity="0.55" />
    <rect x="46" y="46" width="108" height="108" stroke="#6f5b43" stroke-width="1" stroke-opacity="0.34" />
    <line x1="24" y1="152" x2="176" y2="152" stroke="#6f5b43" stroke-width="1" stroke-opacity="0.32" />
    <line x1="100" y1="152" x2="100" y2="52" stroke="#976f25" stroke-width="0.9" stroke-opacity="0.6" />
    <path d="M58,152 L142,152 L132,130 L68,130 Z" stroke="#a3311d" stroke-width="1.7" stroke-opacity="0.95" />
    <path d="M72,130 L128,130 L119,108 L81,108 Z" stroke="#a3311d" stroke-width="1.7" stroke-opacity="0.95" />
    <path d="M84,108 L116,108 L109,88 L91,88 Z" stroke="#a3311d" stroke-width="1.7" stroke-opacity="0.95" />
    <path d="M94,152 L94,140 Q100,132 106,140 L106,152" stroke="#a3311d" stroke-width="1.5" stroke-opacity="0.95" />
    <circle cx="100" cy="48" r="13" fill="#b3852f" fill-opacity="0.12" stroke="none" />
    <path d="M100,32 L102.5,45.5 L114,48 L102.5,50.5 L100,64 L97.5,50.5 L86,48 L97.5,45.5 Z" stroke="#b3852f" stroke-width="1.2" />
    <circle cx="100" cy="48" r="2.6" fill="#b3852f" stroke="none" />
  </g>

  <text x="600" y="380" text-anchor="middle" font-family="Georgia, 'Times New Roman', serif" font-size="62" letter-spacing="9" fill="#dcb45f">DAO DE ZION</text>
  <text x="600" y="442" text-anchor="middle" font-family="Georgia, 'Times New Roman', serif" font-size="34" letter-spacing="14" fill="#c49a52">INSTITUTE</text>

  <line x1="470" y1="486" x2="730" y2="486" stroke="#b3852f" stroke-opacity="0.5" stroke-width="1" />

  <text x="600" y="540" text-anchor="middle" font-family="Georgia, 'Times New Roman', serif" font-size="23" letter-spacing="3" fill="#a98f63">Comparative theology · philosophy · disciplined reflection</text>
</svg>
